<svg xmlns="http://www.w3.org/2000/svg" width="1920" height="1080"><path d="M-347,-303L-38,-321L384,-388Z" fill="#4b90dd" stroke="#4b90dd" stroke-width="1.51"/><path d="M384,-388L488,-363L874,-323Z" fill="#4c9ecc" stroke="#4c9ecc" stroke-width="1.51"/><path d="M1114,1335L385,1442L1449,1415Z" fill="#b4ad61" stroke="#b4ad61" stroke-width="1.51"/><path d="M385,1442L-59,1450L1593,1472Z" fill="#bba16a" stroke="#bba16a" stroke-width="1.51"/><path d="M1449,1415L385,1442L1593,1472Z" fill="#c1a756" stroke="#c1a756" stroke-width="1.51"/><path d="M384,-388L874,-323L1609,-366Z" fill="#4aa8c1" stroke="#4aa8c1" stroke-width="1.51"/><path d="M384,-388L1609,-366L1787,-373Z" fill="#759fb4" stroke="#759fb4" stroke-width="1.51"/><path d="M2019,1369L1593,1472L2146,1355Z" fill="#e59135" stroke="#e59135" stroke-width="1.51"/><path d="M2144,465L2062,532L2172,827Z" fill="#b4ad61" stroke="#b4ad61" stroke-width="1.51"/><path d="M2062,532L1999,727L2172,827Z" fill="#b9ab5d" stroke="#b9ab5d" stroke-width="1.51"/><path d="M1983,84L2141,313L2253,63Z" fill="#b59e78" stroke="#b59e78" stroke-width="1.51"/><path d="M2199,-299L2162,-148L2253,63Z" fill="#bd9083" stroke="#bd9083" stroke-width="1.51"/><path d="M2144,465L2172,827L2253,63Z" fill="#b3aa66" stroke="#b3aa66" stroke-width="1.51"/><path d="M2141,313L2144,465L2253,63Z" fill="#b6a370" stroke="#b6a370" stroke-width="1.51"/><path d="M2191,1007L2065,1155L2281,1257Z" fill="#e0953b" stroke="#e0953b" stroke-width="1.51"/><path d="M2065,1155L2146,1355L2281,1257Z" fill="#e79033" stroke="#e79033" stroke-width="1.51"/><path d="M2253,63L2172,827L2281,1257Z" fill="#c3a555" stroke="#c3a555" stroke-width="1.51"/><path d="M2172,827L2191,1007L2281,1257Z" fill="#db9941" stroke="#db9941" stroke-width="1.51"/><path d="M2162,-148L1983,84L2253,63Z" fill="#b79880" stroke="#b79880" stroke-width="1.51"/><path d="M2141,313L2057,379L2144,465Z" fill="#b0a96d" stroke="#b0a96d" stroke-width="1.51"/><path d="M1952,-137L1983,84L2162,-148Z" fill="#b19887" stroke="#b19887" stroke-width="1.51"/><path d="M2172,827L1951,901L2191,1007Z" fill="#cca14e" stroke="#cca14e" stroke-width="1.51"/><path d="M2073,-339L2162,-148L2199,-299Z" fill="#ba8c8b" stroke="#ba8c8b" stroke-width="1.51"/><path d="M1951,901L2065,1155L2191,1007Z" fill="#d39e48" stroke="#d39e48" stroke-width="1.51"/><path d="M2065,1155L2019,1369L2146,1355Z" fill="#e69135" stroke="#e69135" stroke-width="1.51"/><path d="M2073,-339L1952,-137L2162,-148Z" fill="#b5908c" stroke="#b5908c" stroke-width="1.51"/><path d="M1999,727L1951,901L2172,827Z" fill="#c1a757" stroke="#c1a757" stroke-width="1.51"/><path d="M1983,84L2057,379L2141,313Z" fill="#afa576" stroke="#afa576" stroke-width="1.51"/><path d="M2057,379L2062,532L2144,465Z" fill="#adad6b" stroke="#adad6b" stroke-width="1.51"/><path d="M1717,1311L1593,1472L2019,1369Z" fill="#de973d" stroke="#de973d" stroke-width="1.51"/><path d="M1983,84L1804,116L2057,379Z" fill="#a8a57e" stroke="#a8a57e" stroke-width="1.51"/><path d="M1804,116L1811,408L2057,379Z" fill="#a2ab7b" stroke="#a2ab7b" stroke-width="1.51"/><path d="M1835,556L1999,727L2062,532Z" fill="#aab067" stroke="#aab067" stroke-width="1.51"/><path d="M2057,379L1811,408L2062,532Z" fill="#a6af70" stroke="#a6af70" stroke-width="1.51"/><path d="M1811,408L1835,556L2062,532Z" fill="#a0b370" stroke="#a0b370" stroke-width="1.51"/><path d="M1791,1221L2019,1369L2065,1155Z" fill="#dd973e" stroke="#dd973e" stroke-width="1.51"/><path d="M1951,901L1791,1221L2065,1155Z" fill="#d19f4a" stroke="#d19f4a" stroke-width="1.51"/><path d="M1787,-373L1952,-137L2073,-339Z" fill="#ae9194" stroke="#ae9194" stroke-width="1.51"/><path d="M1781,927L1791,1221L1951,901Z" fill="#c6a553" stroke="#c6a553" stroke-width="1.51"/><path d="M1952,-137L1747,3L1983,84Z" fill="#a89e8a" stroke="#a89e8a" stroke-width="1.51"/><path d="M1791,1221L1717,1311L2019,1369Z" fill="#db9940" stroke="#db9940" stroke-width="1.51"/><path d="M1747,3L1804,116L1983,84Z" fill="#a3a389" stroke="#a3a389" stroke-width="1.51"/><path d="M1723,764L1951,901L1999,727Z" fill="#b6ab5f" stroke="#b6ab5f" stroke-width="1.51"/><path d="M1835,556L1723,764L1999,727Z" fill="#a9b067" stroke="#a9b067" stroke-width="1.51"/><path d="M1723,764L1781,927L1951,901Z" fill="#b8ab5e" stroke="#b8ab5e" stroke-width="1.51"/><path d="M1787,-373L1589,-158L1952,-137Z" fill="#a19898" stroke="#a19898" stroke-width="1.51"/><path d="M1589,-158L1747,3L1952,-137Z" fill="#9f9e93" stroke="#9f9e93" stroke-width="1.51"/><path d="M874,-323L1337,-245L1609,-366Z" fill="#76a2b1" stroke="#76a2b1" stroke-width="1.51"/><path d="M1609,-366L1589,-158L1787,-373Z" fill="#9a98a1" stroke="#9a98a1" stroke-width="1.51"/><path d="M1781,927L1603,1183L1791,1221Z" fill="#c7a452" stroke="#c7a452" stroke-width="1.51"/><path d="M1633,199L1633,268L1804,116Z" fill="#95ab89" stroke="#95ab89" stroke-width="1.51"/><path d="M1804,116L1633,268L1811,408Z" fill="#98ad83" stroke="#98ad83" stroke-width="1.51"/><path d="M1811,408L1615,462L1835,556Z" fill="#95b578" stroke="#95b578" stroke-width="1.51"/><path d="M1615,462L1723,764L1835,556Z" fill="#97b773" stroke="#97b773" stroke-width="1.51"/><path d="M1587,900L1603,1183L1781,927Z" fill="#bbaa5c" stroke="#bbaa5c" stroke-width="1.51"/><path d="M1633,268L1615,462L1811,408Z" fill="#91b380" stroke="#91b380" stroke-width="1.51"/><path d="M1747,3L1633,199L1804,116Z" fill="#9aa78b" stroke="#9aa78b" stroke-width="1.51"/><path d="M1723,764L1587,900L1781,927Z" fill="#b1ae63" stroke="#b1ae63" stroke-width="1.51"/><path d="M1603,1183L1717,1311L1791,1221Z" fill="#d09f4b" stroke="#d09f4b" stroke-width="1.51"/><path d="M890,1300L479,1390L1114,1335Z" fill="#afab6a" stroke="#afab6a" stroke-width="1.51"/><path d="M479,1390L385,1442L1114,1335Z" fill="#b5a56d" stroke="#b5a56d" stroke-width="1.51"/><path d="M1615,462L1515,811L1723,764Z" fill="#98b672" stroke="#98b672" stroke-width="1.51"/><path d="M1589,-158L1633,199L1747,3Z" fill="#96a592" stroke="#96a592" stroke-width="1.51"/><path d="M874,-323L1104,-231L1337,-245Z" fill="#61a8b7" stroke="#61a8b7" stroke-width="1.51"/><path d="M1589,-158L1375,-40L1633,199Z" fill="#8ba899" stroke="#8ba899" stroke-width="1.51"/><path d="M1515,811L1587,900L1723,764Z" fill="#a7b26a" stroke="#a7b26a" stroke-width="1.51"/><path d="M1603,1183L1593,1472L1717,1311Z" fill="#d39d48" stroke="#d39d48" stroke-width="1.51"/><path d="M1587,900L1353,917L1603,1183Z" fill="#b1ae63" stroke="#b1ae63" stroke-width="1.51"/><path d="M1353,917L1343,1188L1603,1183Z" fill="#b5ac60" stroke="#b5ac60" stroke-width="1.51"/><path d="M1449,1415L1593,1472L1603,1183Z" fill="#d19f4a" stroke="#d19f4a" stroke-width="1.51"/><path d="M1337,-245L1589,-158L1609,-366Z" fill="#8d9fa5" stroke="#8d9fa5" stroke-width="1.51"/><path d="M1397,485L1515,811L1615,462Z" fill="#83bc7d" stroke="#83bc7d" stroke-width="1.51"/><path d="M1457,282L1615,462L1633,268Z" fill="#88b487" stroke="#88b487" stroke-width="1.51"/><path d="M1375,-40L1356,81L1633,199Z" fill="#83ad98" stroke="#83ad98" stroke-width="1.51"/><path d="M1457,282L1633,268L1633,199Z" fill="#8bb18b" stroke="#8bb18b" stroke-width="1.51"/><path d="M1356,81L1457,282L1633,199Z" fill="#84b092" stroke="#84b092" stroke-width="1.51"/><path d="M1397,485L1304,733L1515,811Z" fill="#86bc7c" stroke="#86bc7c" stroke-width="1.51"/><path d="M1343,1188L1449,1415L1603,1183Z" fill="#c4a554" stroke="#c4a554" stroke-width="1.51"/><path d="M1457,282L1397,485L1615,462Z" fill="#7fb986" stroke="#7fb986" stroke-width="1.51"/><path d="M1337,-245L1375,-40L1589,-158Z" fill="#85a4a3" stroke="#85a4a3" stroke-width="1.51"/><path d="M738,1305L479,1390L890,1300Z" fill="#b0a86f" stroke="#b0a86f" stroke-width="1.51"/><path d="M1515,811L1353,917L1587,900Z" fill="#a3b36c" stroke="#a3b36c" stroke-width="1.51"/><path d="M1304,733L1353,917L1515,811Z" fill="#96b773" stroke="#96b773" stroke-width="1.51"/><path d="M1304,733L1259,831L1353,917Z" fill="#90b976" stroke="#90b976" stroke-width="1.51"/><path d="M1343,1188L1114,1335L1449,1415Z" fill="#c0a758" stroke="#c0a758" stroke-width="1.51"/><path d="M1139,372L1397,485L1457,282Z" fill="#6fbb8f" stroke="#6fbb8f" stroke-width="1.51"/><path d="M1356,81L1139,372L1457,282Z" fill="#71b696" stroke="#71b696" stroke-width="1.51"/><path d="M1086,1087L1343,1188L1353,917Z" fill="#a6b269" stroke="#a6b269" stroke-width="1.51"/><path d="M1180,889L1086,1087L1353,917Z" fill="#99b672" stroke="#99b672" stroke-width="1.51"/><path d="M1180,51L1139,372L1356,81Z" fill="#68b69e" stroke="#68b69e" stroke-width="1.51"/><path d="M1095,466L1304,733L1397,485Z" fill="#65c288" stroke="#65c288" stroke-width="1.51"/><path d="M1139,372L1095,466L1397,485Z" fill="#5ec191" stroke="#5ec191" stroke-width="1.51"/><path d="M1104,-231L1075,-135L1337,-245Z" fill="#69a9b1" stroke="#69a9b1" stroke-width="1.51"/><path d="M1337,-245L1075,-135L1375,-40Z" fill="#73a9aa" stroke="#73a9aa" stroke-width="1.51"/><path d="M1075,-135L1180,51L1375,-40Z" fill="#6aaea8" stroke="#6aaea8" stroke-width="1.51"/><path d="M1180,51L1356,81L1375,-40Z" fill="#74aea0" stroke="#74aea0" stroke-width="1.51"/><path d="M1259,831L1180,889L1353,917Z" fill="#93b875" stroke="#93b875" stroke-width="1.51"/><path d="M1086,1087L1114,1335L1343,1188Z" fill="#afaf64" stroke="#afaf64" stroke-width="1.51"/><path d="M897,699L1180,889L1259,831Z" fill="#7cbe80" stroke="#7cbe80" stroke-width="1.51"/><path d="M1095,466L1017,499L1304,733Z" fill="#54c58e" stroke="#54c58e" stroke-width="1.51"/><path d="M897,699L1259,831L1304,733Z" fill="#79bf81" stroke="#79bf81" stroke-width="1.51"/><path d="M1017,499L897,699L1304,733Z" fill="#5cc48c" stroke="#5cc48c" stroke-width="1.51"/><path d="M971,174L1139,372L1180,51Z" fill="#55b9a1" stroke="#55b9a1" stroke-width="1.51"/><path d="M1075,-135L971,174L1180,51Z" fill="#56b3aa" stroke="#56b3aa" stroke-width="1.51"/><path d="M897,699L1006,947L1180,889Z" fill="#79be81" stroke="#79be81" stroke-width="1.51"/><path d="M1006,947L1086,1087L1180,889Z" fill="#90b977" stroke="#90b977" stroke-width="1.51"/><path d="M842,-85L971,174L1075,-135Z" fill="#42b5b1" stroke="#42b5b1" stroke-width="1.51"/><path d="M1086,1087L983,1078L1114,1335Z" fill="#a3b36c" stroke="#a3b36c" stroke-width="1.51"/><path d="M983,1078L890,1300L1114,1335Z" fill="#a6b26a" stroke="#a6b26a" stroke-width="1.51"/><path d="M1017,499L1095,466L1139,372Z" fill="#49c396" stroke="#49c396" stroke-width="1.51"/><path d="M872,280L1017,499L1139,372Z" fill="#3cc29d" stroke="#3cc29d" stroke-width="1.51"/><path d="M971,174L872,280L1139,372Z" fill="#3ebea2" stroke="#3ebea2" stroke-width="1.51"/><path d="M1029,-159L842,-85L1075,-135Z" fill="#49b0b5" stroke="#49b0b5" stroke-width="1.51"/><path d="M1006,947L983,1078L1086,1087Z" fill="#92b875" stroke="#92b875" stroke-width="1.51"/><path d="M1029,-159L1075,-135L1104,-231Z" fill="#5aacb4" stroke="#5aacb4" stroke-width="1.51"/><path d="M874,-323L1029,-159L1104,-231Z" fill="#50abb9" stroke="#50abb9" stroke-width="1.51"/><path d="M842,-85L818,113L971,174Z" fill="#41b6b0" stroke="#41b6b0" stroke-width="1.51"/><path d="M816,1261L890,1300L983,1078Z" fill="#a1b26f" stroke="#a1b26f" stroke-width="1.51"/><path d="M874,-323L817,-236L1029,-159Z" fill="#48abbd" stroke="#48abbd" stroke-width="1.51"/><path d="M817,-236L842,-85L1029,-159Z" fill="#47aeba" stroke="#47aeba" stroke-width="1.51"/><path d="M897,699L778,715L1006,947Z" fill="#6ac08a" stroke="#6ac08a" stroke-width="1.51"/><path d="M778,715L719,968L1006,947Z" fill="#7abc86" stroke="#7abc86" stroke-width="1.51"/><path d="M872,280L726,311L1017,499Z" fill="#34c1a3" stroke="#34c1a3" stroke-width="1.51"/><path d="M726,311L698,594L1017,499Z" fill="#30c3a0" stroke="#30c3a0" stroke-width="1.51"/><path d="M698,594L897,699L1017,499Z" fill="#3fc597" stroke="#3fc597" stroke-width="1.51"/><path d="M719,968L983,1078L1006,947Z" fill="#89b97d" stroke="#89b97d" stroke-width="1.51"/><path d="M719,968L816,1261L983,1078Z" fill="#96b478" stroke="#96b478" stroke-width="1.51"/><path d="M818,113L872,280L971,174Z" fill="#3cbaaa" stroke="#3cbaaa" stroke-width="1.51"/><path d="M816,1261L738,1305L890,1300Z" fill="#aaad6e" stroke="#aaad6e" stroke-width="1.51"/><path d="M698,594L778,715L897,699Z" fill="#55c095" stroke="#55c095" stroke-width="1.51"/><path d="M818,113L726,311L872,280Z" fill="#3dbaab" stroke="#3dbaab" stroke-width="1.51"/><path d="M719,968L578,1237L816,1261Z" fill="#9eae7a" stroke="#9eae7a" stroke-width="1.51"/><path d="M488,-363L817,-236L874,-323Z" fill="#4ba4c6" stroke="#4ba4c6" stroke-width="1.51"/><path d="M578,1237L738,1305L816,1261Z" fill="#a9ab72" stroke="#a9ab72" stroke-width="1.51"/><path d="M817,-236L495,-23L842,-85Z" fill="#49abbd" stroke="#49abbd" stroke-width="1.51"/><path d="M495,-23L544,76L842,-85Z" fill="#48acbc" stroke="#48acbc" stroke-width="1.51"/><path d="M544,76L818,113L842,-85Z" fill="#45b1b6" stroke="#45b1b6" stroke-width="1.51"/><path d="M558,772L719,968L778,715Z" fill="#73ba8f" stroke="#73ba8f" stroke-width="1.51"/><path d="M488,-363L495,-23L817,-236Z" fill="#4ba4c5" stroke="#4ba4c5" stroke-width="1.51"/><path d="M544,76L726,311L818,113Z" fill="#42b5b1" stroke="#42b5b1" stroke-width="1.51"/><path d="M532,356L698,594L726,311Z" fill="#39bda7" stroke="#39bda7" stroke-width="1.51"/><path d="M698,594L558,772L778,715Z" fill="#5dbd97" stroke="#5dbd97" stroke-width="1.51"/><path d="M479,878L578,1237L719,968Z" fill="#92b085" stroke="#92b085" stroke-width="1.51"/><path d="M558,772L479,878L719,968Z" fill="#7db58f" stroke="#7db58f" stroke-width="1.51"/><path d="M544,76L532,356L726,311Z" fill="#42b5b0" stroke="#42b5b0" stroke-width="1.51"/><path d="M578,1237L479,1390L738,1305Z" fill="#afa674" stroke="#afa674" stroke-width="1.51"/><path d="M532,356L485,616L698,594Z" fill="#37bfa5" stroke="#37bfa5" stroke-width="1.51"/><path d="M485,616L558,772L698,594Z" fill="#58bc9c" stroke="#58bc9c" stroke-width="1.51"/><path d="M58,1396L-59,1450L385,1442Z" fill="#be937d" stroke="#be937d" stroke-width="1.51"/><path d="M362,867L404,1245L479,878Z" fill="#90ac8d" stroke="#90ac8d" stroke-width="1.51"/><path d="M488,-363L254,-118L495,-23Z" fill="#4ca1c9" stroke="#4ca1c9" stroke-width="1.51"/><path d="M411,415L485,616L532,356Z" fill="#3dbaaa" stroke="#3dbaaa" stroke-width="1.51"/><path d="M362,86L532,356L544,76Z" fill="#46afb8" stroke="#46afb8" stroke-width="1.51"/><path d="M404,1245L479,1390L578,1237Z" fill="#aea379" stroke="#aea379" stroke-width="1.51"/><path d="M479,878L404,1245L578,1237Z" fill="#9eaa83" stroke="#9eaa83" stroke-width="1.51"/><path d="M362,867L194,1110L404,1245Z" fill="#9aa68b" stroke="#9aa68b" stroke-width="1.51"/><path d="M384,-388L254,-118L488,-363Z" fill="#4c9bd0" stroke="#4c9bd0" stroke-width="1.51"/><path d="M362,86L411,415L532,356Z" fill="#44b2b4" stroke="#44b2b4" stroke-width="1.51"/><path d="M485,616L353,714L558,772Z" fill="#63b79d" stroke="#63b79d" stroke-width="1.51"/><path d="M353,714L479,878L558,772Z" fill="#73b598" stroke="#73b598" stroke-width="1.51"/><path d="M495,-23L362,86L544,76Z" fill="#49aabe" stroke="#49aabe" stroke-width="1.51"/><path d="M353,714L362,867L479,878Z" fill="#78b298" stroke="#78b298" stroke-width="1.51"/><path d="M362,86L197,386L411,415Z" fill="#46b0b7" stroke="#46b0b7" stroke-width="1.51"/><path d="M411,415L264,537L485,616Z" fill="#3dbaab" stroke="#3dbaab" stroke-width="1.51"/><path d="M254,-118L362,86L495,-23Z" fill="#4ba6c4" stroke="#4ba6c4" stroke-width="1.51"/><path d="M404,1245L385,1442L479,1390Z" fill="#b59f77" stroke="#b59f77" stroke-width="1.51"/><path d="M264,537L353,714L485,616Z" fill="#54b7a5" stroke="#54b7a5" stroke-width="1.51"/><path d="M161,86L197,386L362,86Z" fill="#49aabf" stroke="#49aabf" stroke-width="1.51"/><path d="M-38,-321L152,-275L384,-388Z" fill="#4c94d8" stroke="#4c94d8" stroke-width="1.51"/><path d="M152,-275L254,-118L384,-388Z" fill="#4d99d2" stroke="#4d99d2" stroke-width="1.51"/><path d="M58,1396L385,1442L404,1245Z" fill="#b79b7c" stroke="#b79b7c" stroke-width="1.51"/><path d="M194,1110L58,1396L404,1245Z" fill="#ad9d84" stroke="#ad9d84" stroke-width="1.51"/><path d="M197,386L264,537L411,415Z" fill="#42b5b1" stroke="#42b5b1" stroke-width="1.51"/><path d="M254,-118L161,86L362,86Z" fill="#4ca4c6" stroke="#4ca4c6" stroke-width="1.51"/><path d="M102,1041L194,1110L362,867Z" fill="#93a693" stroke="#93a693" stroke-width="1.51"/><path d="M264,537L111,631L353,714Z" fill="#58b4a9" stroke="#58b4a9" stroke-width="1.51"/><path d="M85,815L102,1041L362,867Z" fill="#88a99a" stroke="#88a99a" stroke-width="1.51"/><path d="M353,714L85,815L362,867Z" fill="#77af9e" stroke="#77af9e" stroke-width="1.51"/><path d="M111,631L85,815L353,714Z" fill="#6bafa5" stroke="#6bafa5" stroke-width="1.51"/><path d="M161,86L-70,201L197,386Z" fill="#4aa8c2" stroke="#4aa8c2" stroke-width="1.51"/><path d="M74,-60L161,86L254,-118Z" fill="#4ca0cb" stroke="#4ca0cb" stroke-width="1.51"/><path d="M197,386L111,631L264,537Z" fill="#42b5b1" stroke="#42b5b1" stroke-width="1.51"/><path d="M-42,1162L58,1396L194,1110Z" fill="#ac9a8b" stroke="#ac9a8b" stroke-width="1.51"/><path d="M152,-275L74,-60L254,-118Z" fill="#4c9bd0" stroke="#4c9bd0" stroke-width="1.51"/><path d="M85,815L-5,944L102,1041Z" fill="#8ca59c" stroke="#8ca59c" stroke-width="1.51"/><path d="M102,1041L-42,1162L194,1110Z" fill="#9f9f91" stroke="#9f9f91" stroke-width="1.51"/><path d="M-70,201L-32,395L197,386Z" fill="#49a9bf" stroke="#49a9bf" stroke-width="1.51"/><path d="M-32,395L111,631L197,386Z" fill="#45b0b6" stroke="#45b0b6" stroke-width="1.51"/><path d="M-15,774L85,815L111,631Z" fill="#70aca8" stroke="#70aca8" stroke-width="1.51"/><path d="M-38,-321L74,-60L152,-275Z" fill="#4c96d6" stroke="#4c96d6" stroke-width="1.51"/><path d="M74,-60L-70,201L161,86Z" fill="#4ca1c9" stroke="#4ca1c9" stroke-width="1.51"/><path d="M-38,-321L-122,-107L74,-60Z" fill="#4c96d6" stroke="#4c96d6" stroke-width="1.51"/><path d="M-167,633L-15,774L111,631Z" fill="#66abae" stroke="#66abae" stroke-width="1.51"/><path d="M-32,395L-167,633L111,631Z" fill="#49afb6" stroke="#49afb6" stroke-width="1.51"/><path d="M-122,-107L-70,201L74,-60Z" fill="#4d9ccf" stroke="#4d9ccf" stroke-width="1.51"/><path d="M-5,944L-42,1162L102,1041Z" fill="#9a9f97" stroke="#9a9f97" stroke-width="1.51"/><path d="M-42,1162L-59,1450L58,1396Z" fill="#b79387" stroke="#b79387" stroke-width="1.51"/><path d="M-15,774L-5,944L85,815Z" fill="#81a7a3" stroke="#81a7a3" stroke-width="1.51"/><path d="M-235,1346L-59,1450L-42,1162Z" fill="#b6918b" stroke="#b6918b" stroke-width="1.51"/><path d="M-122,-107L-247,-98L-70,201Z" fill="#4c99d3" stroke="#4c99d3" stroke-width="1.51"/><path d="M-251,563L-167,633L-32,395Z" fill="#47acbb" stroke="#47acbb" stroke-width="1.51"/><path d="M-15,774L-217,875L-5,944Z" fill="#84a3a5" stroke="#84a3a5" stroke-width="1.51"/><path d="M-217,875L-42,1162L-5,944Z" fill="#959e9d" stroke="#959e9d" stroke-width="1.51"/><path d="M-247,-98L-361,56L-70,201Z" fill="#4d99d3" stroke="#4d99d3" stroke-width="1.51"/><path d="M-217,875L-389,1078L-42,1162Z" fill="#9b999f" stroke="#9b999f" stroke-width="1.51"/><path d="M-70,201L-270,288L-32,395Z" fill="#4ba4c5" stroke="#4ba4c5" stroke-width="1.51"/><path d="M-167,633L-217,875L-15,774Z" fill="#76a5ad" stroke="#76a5ad" stroke-width="1.51"/><path d="M-347,-303L-122,-107L-38,-321Z" fill="#4b8fde" stroke="#4b8fde" stroke-width="1.51"/><path d="M-270,288L-251,563L-32,395Z" fill="#4aa7c2" stroke="#4aa7c2" stroke-width="1.51"/><path d="M-347,-303L-247,-98L-122,-107Z" fill="#4b90dd" stroke="#4b90dd" stroke-width="1.51"/><path d="M-389,1078L-235,1346L-42,1162Z" fill="#ac9296" stroke="#ac9296" stroke-width="1.51"/><path d="M-264,663L-217,875L-167,633Z" fill="#71a5b2" stroke="#71a5b2" stroke-width="1.51"/><path d="M-361,56L-270,288L-70,201Z" fill="#4c9dcd" stroke="#4c9dcd" stroke-width="1.51"/><path d="M-251,563L-264,663L-167,633Z" fill="#5ca8b8" stroke="#5ca8b8" stroke-width="1.51"/><path d="M-264,663L-389,1078L-217,875Z" fill="#879dab" stroke="#879dab" stroke-width="1.51"/><path d="M-347,-303L-361,56L-247,-98Z" fill="#4c90dd" stroke="#4c90dd" stroke-width="1.51"/><path d="M-361,56L-264,663L-251,563Z" fill="#4ba5c4" stroke="#4ba5c4" stroke-width="1.51"/><path d="M-270,288L-361,56L-251,563Z" fill="#4ca0c9" stroke="#4ca0c9" stroke-width="1.51"/><path d="M-361,56L-389,1078L-264,663Z" fill="#59a6bd" stroke="#59a6bd" stroke-width="1.51"/></svg>